<?xml version="1.0" encoding="iso-8859-1"?>
<svg version="1.1" id="Layer_1" xmlns="http://www.w3.org/2000/svg" xmlns:xlink="http://www.w3.org/1999/xlink" x="0px" y="0px"
	 viewBox="0 0 512 512" xml:space="preserve">

<rect width="100%" height="100%" fill="white"/>
<g>
	<g>
		<path d="M495.304,0H16.696C7.475,0,0,7.475,0,16.696v478.609C0,504.525,7.475,512,16.696,512h478.609
			c9.22,0,16.696-7.475,16.696-16.696V16.696C512,7.475,504.525,0,495.304,0z M478.609,478.609H33.391V33.391h445.217V478.609z"/>
	</g>
</g>
<g>
	<g>
		<path d="M196.207,88.919c6.078-6.933,5.386-17.481-1.548-23.561c-6.932-6.077-17.48-5.386-23.561,1.548
			C125.214,119.244,99.945,186.398,99.945,256c0,69.602,25.269,136.756,71.154,189.094c3.301,3.764,7.918,5.689,12.561,5.689
			c3.907,0,7.831-1.365,11-4.142c6.933-6.079,7.627-16.627,1.548-23.561C112.699,327.829,112.699,184.17,196.207,88.919z"/>
	</g>
</g>
<g >
	<g >
		<path d="M340.902,66.906c-6.079-6.933-16.627-7.625-23.561-1.548c-6.933,6.079-7.627,16.627-1.548,23.561
			c83.508,95.251,83.508,238.91,0,334.161c-6.077,6.934-5.385,17.481,1.548,23.561c3.169,2.778,7.092,4.142,11,4.142
			c4.641,0,9.259-1.924,12.561-5.689c45.884-52.336,71.154-119.491,71.154-189.094S386.786,119.244,340.902,66.906z"/>
	</g>
</g>
</svg>
